<?xml version="1.0" encoding="utf-8"?>
<svg width="328px" height="106px" viewBox="0 0 328 106" version="1.1" xmlns:xlink="http://www.w3.org/1999/xlink" xmlns="http://www.w3.org/2000/svg">
  <defs>
    <path d="M0 0L12.9179 0L12.9179 14.0288L0 14.0288L0 0Z" transform="translate(0.37543204 0.97125)" id="path_1" />
    <clipPath id="mask_1">
      <use xlink:href="#path_1" />
    </clipPath>
  </defs>
  <g id="PMST-ID---White">
    <path d="M17.067 12.4391C19.5712 12.4391 20.9324 11.4564 21.4699 9.28154C21.9286 7.44103 21.0296 6.5869 18.7841 6.5869L17.267 6.5869L15.7057 12.4391L17.067 12.4391ZM7.80792 0L24.9391 0C30.5254 0 33.8037 2.71668 32.8296 7.34919C31.9123 11.7007 29.2962 13.5118 25.229 14.3182L25.207 14.4008C28.6908 15.1613 30.5511 17.2938 29.3347 21.8143C28.6688 24.2812 27.4011 29 27.4011 29L16.1644 29C16.1644 29 17.5678 23.7466 18.1127 21.3C18.4888 19.6101 18.0852 18.1075 15.4911 18.1075L14.1684 18.1075L11.2331 29L0 29L7.80792 0Z" transform="translate(220 48)" id="Fill-1" fill="#FEFEFE" fill-rule="evenodd" stroke="none" />
    <path d="M19.4782 9.33428C19.9202 7.52051 18.7355 6.91592 17.27 6.91592C15.4477 6.91592 14.772 7.58503 14.5999 8.48085C14.359 9.74902 15.3136 10.2449 16.4077 10.608C18.4167 11.2531 21.8349 11.7139 24.2858 13.1646C27.6787 15.1701 28.0609 18.7054 27.3399 21.4242C25.2803 29.1954 19.2191 31 10.977 31C4.08434 31 -1.30114 27.7171 0.276644 21.4242L11.1328 21.4242C10.919 22.2298 10.9154 22.8122 11.1962 23.4002C11.4969 24.0343 12.2993 24.3292 13.3681 24.3292C15.5328 24.3292 16.4566 23.2675 16.5309 21.9496C16.5726 21.1754 16.1596 20.3644 14.589 19.7893C14.589 19.7893 9.85567 18.381 8.56591 17.8225C4.42309 16.0345 2.70944 12.7406 4.00102 8.16013C5.6422 2.34094 11.2704 0 19.5524 0C26.6824 0 31.4121 2.56214 29.6187 9.33428L19.4782 9.33428Z" transform="translate(119 47)" id="Fill-3" fill="#FEFEFE" fill-rule="evenodd" stroke="none" />
    <path d="M34.0976 8.2335L34.0152 8.2335L24.3413 29L13.8507 29L15.3577 8.2335L15.2753 8.2335L9.68855 29L0 29L7.80064 0L23.6967 0L22.2282 17.2292L22.3106 17.2292L30.1021 0L46 0L38.1957 29L28.5071 29L34.0976 8.2335Z" transform="translate(146 48)" id="Fill-5" fill="#FEFEFE" fill-rule="evenodd" stroke="none" />
    <path d="M21.6315 17.2718L22.2774 6.34811L22.1996 6.34811L16.804 17.2718L21.6315 17.2718ZM16.8438 0L31.5235 0L33 29L21.0669 29L21.2986 24.3399L13.2268 24.3399L10.842 29L0 29L16.8438 0Z" transform="translate(185 48)" id="Fill-7" fill="#FEFEFE" fill-rule="evenodd" stroke="none" />
    <path d="M7.30058 7.7937L0 7.7937L2.10774 0L28 0L25.8886 7.7937L18.8332 7.7937L13.0927 29L1.56006 29L7.30058 7.7937Z" transform="translate(253 48)" id="Fill-9" fill="#FEFEFE" fill-rule="evenodd" stroke="none" />
    <path d="M22.5538 2.41054C22.0291 2.10809 21.3124 2.14635 19.914 2.14635L16.43 14.9716C17.8635 14.968 18.9109 14.7584 20.0304 13.8966C21.281 12.8927 21.9645 11.477 22.6351 8.93705C23.7952 4.54232 23.7361 3.09016 22.5538 2.41054L22.5538 2.41054ZM14.9613 28.8536L14.3794 31L0 31L0.583749 28.8536L2.93537 28.8536L10.1897 2.14635L7.83813 2.14635L8.42188 0L24.039 0C29.5495 0 34.2491 2.78406 32.701 8.47426C31.6573 12.3096 29.7657 14.1317 27.4972 15.1994C24.2588 16.7189 20.6363 17.0396 15.8684 17.0396L12.6596 28.8536L14.9613 28.8536Z" transform="translate(0 37)" id="Fill-11" fill="#FEFEFE" fill-rule="evenodd" stroke="none" />
    <path d="M18.5263 13.7235C17.7552 13.9331 16.9585 13.9057 16.6252 13.913L19.7938 2.14635C21.6986 2.14635 22.477 2.23199 22.9715 3.0847C23.5064 4.00846 23.2701 6.0874 22.5466 8.44875C21.6931 11.2383 20.955 13.0585 18.5263 13.7235L18.5263 13.7235ZM35.5233 0L34.9445 2.14635L37.3017 2.14635L30.1092 28.8536L28.2556 28.8536C27.545 27.857 27.4131 25.5631 27.4241 23.8321C27.4516 20.0223 27.3179 18.8143 26.272 17.3348C25.4881 16.2179 23.8544 15.4563 22.7371 15.1465C24.8104 15.0572 26.9167 14.4523 28.4516 13.4921C30.4205 12.2623 31.7026 10.0448 32.1129 8.17727C32.743 5.31486 32.1001 3.65499 31.0341 2.36317C29.1879 0.12572 25.6951 0 22.4184 0L8.35012 0L7.77135 2.14635L10.1029 2.14635L2.91036 28.8536L0.578776 28.8536L0 31L14.2093 31L14.7863 28.8536L12.6012 28.8536L16.0336 16.1104C17.0464 16.1104 17.8926 16.2452 18.3725 17.0815C19.0831 18.3205 17.9952 21.8826 17.9054 24.8543C17.8541 26.5233 18.0336 27.7367 18.8835 28.9393C19.9256 30.4133 21.3927 31 23.5247 31L41.6499 31L42.2268 28.8536L39.9447 28.8536L47.1391 2.14635L49.4212 2.14635L50 0L35.5233 0Z" transform="translate(26 37)" id="Fill-13" fill="#FEFEFE" fill-rule="evenodd" stroke="none" />
    <path d="M23.0856 22.3222L20.9377 22.3222C18.3679 26.1726 14.4621 29.8917 11.2104 29.5181C8.85621 29.2485 8.42327 27.0563 8.78003 24.3722C9.12006 21.8065 9.55114 20.6494 10.0733 18.7106C11.5115 13.3423 13.6316 6.94636 15.551 4.48272C16.6268 3.1033 18.2434 2.12842 19.5719 2.15211C21.5638 2.18855 23.2844 3.14704 24.0351 6.40334C24.2525 7.33995 24.4662 10.2519 24.4662 10.2519L26.3318 10.2519L29 0.488423L27.2032 0.488423L24.704 2.56757C23.7304 1.51433 22.1064 0.180469 18.8807 0.0201137C14.9954 -0.174863 11.2402 1.04967 7.98104 3.60806C5.32022 5.69449 2.11126 9.86008 0.609909 15.7385C-0.551411 20.2832 -0.092457 25.4072 2.31566 28.4831C4.11617 30.7864 6.74354 32 9.91162 32C13.0834 32 15.1979 30.8465 17.0319 29.7423L18.2452 31.4898L19.8098 31.4898L23.0856 22.3222Z" transform="translate(72 37)" id="Fill-15" fill="#FEFEFE" fill-rule="evenodd" stroke="none" />
    <path d="M8.20308 0L7.6363 2.14635L9.87825 2.14635L2.81233 28.8536L0.568584 28.8536L0 31L22.6624 31L25.5953 20.9788L23.553 20.9788L23.4217 21.2449C22.747 22.6515 21.3957 25.5722 18.7201 27.4015C16.9244 28.6678 14.3747 28.8318 12.2389 28.85L15.7368 15.6075C16.8128 15.6075 18.1119 16.1814 18.5599 17.6445C18.8442 18.5592 18.8568 20.3903 18.6751 21.3414L20.6076 21.3414L23.7978 9.28324L21.7951 9.28324C21.4784 10.207 20.6382 12.0527 19.7637 12.6121C18.882 13.1769 17.6657 13.3045 16.3468 13.3045L19.3013 2.14635C21.4281 2.14635 23.2688 2.14635 24.4203 3.28876C25.4873 4.34736 25.8166 6.59392 25.885 8.82773L27.6645 8.82773L30 0L8.20308 0Z" transform="translate(94 37)" id="Fill-17" fill="#FEFEFE" fill-rule="evenodd" stroke="none" />
    <path d="M11 12.1652L10.948 0L0 2.83296L0.053816 15L11 12.1652Z" transform="translate(71 20)" id="Fill-19" fill="#EC174C" fill-rule="evenodd" stroke="none" />
    <path d="M10.0666 10L13 0.476274L2.93343 0L0 9.52373L10.0666 10Z" transform="translate(84 8)" id="Fill-21" fill="#EC174C" fill-rule="evenodd" stroke="none" />
    <path d="M7.46032 11L13 3.98972L5.53792 0L0 7.01028L7.46032 11Z" transform="translate(101 0)" id="Fill-23" fill="#EC174C" fill-rule="evenodd" stroke="none" />
    <path d="M5.21778 10L12 5.87014L6.78043 0L0 4.12986L5.21778 10Z" transform="translate(119 0)" id="Fill-25" fill="#EC174C" fill-rule="evenodd" stroke="none" />
    <path d="M3.26684 8L10 6.11913L6.73692 0L0 1.88087L3.26684 8Z" transform="translate(135 5)" id="Fill-27" fill="#EC174C" fill-rule="evenodd" stroke="none" />
    <path d="M1.24278 5.91496L7 6L5.75722 0.0850394L0 0L1.24278 5.91496Z" transform="translate(149 14)" id="Fill-29" fill="#EC174C" fill-rule="evenodd" stroke="none" />
    <path d="M0 5.46323L4.80546 7L5 1.53677L0.18942 0L0 5.46323Z" transform="translate(160 23)" id="Fill-31" fill="#EC174C" fill-rule="evenodd" stroke="none" />
    <path d="M0 3.91119L3.80229 6L5 2.08881L1.19414 0L0 3.91119Z" transform="translate(166 35)" id="Fill-33" fill="#EC174C" fill-rule="evenodd" stroke="none" />
    <path d="M0 14L3.68074 0L9.68092 0L9.42421 9.48154L9.46036 9.48154L14.1119 0L20 0L16.3175 14L13.0055 14L16.0842 2.28795L16.0589 2.24719L9.7695 14L6.36175 14L6.4666 2.15271L6.41779 2.18976L3.31375 14L0 14Z" transform="translate(110 87)" id="Fill-35" fill="#FEFEFE" fill-rule="evenodd" stroke="none" />
    <path d="M7.6402 3.79818C7.78318 3.28989 7.78318 2.74209 7.62515 2.41341C7.43512 2.02367 7.15856 1.79197 6.45304 1.78838C5.15299 1.7812 4.57164 2.72413 4.17091 3.79818L7.6402 3.79818ZM3.55381 5.71638C3.18694 6.93771 3.22645 7.9902 4.6262 7.9902C5.67038 7.9902 6.45304 7.51963 6.83872 6.63597L10.308 6.63597C9.63636 8.59009 7.37868 10 4.35152 10C0.66587 10 -0.675564 8.04229 0.315931 4.68185C1.32059 1.29087 4.2123 -0.0741403 6.95725 0.00309062C10.609 0.100078 11.6306 1.92129 10.6467 5.71638L3.55381 5.71638Z" transform="translate(129 91)" id="Fill-37" fill="#FEFEFE" fill-rule="evenodd" stroke="none" />
    <path d="M7.64016 3.79818C7.78315 3.28989 7.78315 2.74209 7.62511 2.41341C7.43509 2.02367 7.16229 1.79197 6.45301 1.78838C5.15297 1.7812 4.57539 2.72413 4.17089 3.79818L7.64016 3.79818ZM3.55379 5.71638C3.19069 6.93771 3.22643 7.9902 4.62242 7.9902C5.67035 7.9902 6.45301 7.51963 6.83869 6.63597L10.308 6.63597C9.63631 8.59009 7.37865 10 4.3515 10C0.665867 10 -0.675561 8.04229 0.315929 4.68185C1.32059 1.29087 4.21228 -0.0741403 6.96098 0.00309062C10.609 0.100078 11.6306 1.92129 10.6466 5.71638L3.55379 5.71638Z" transform="translate(171 91)" id="Fill-39" fill="#FEFEFE" fill-rule="evenodd" stroke="none" />
    <path d="M5.79893 1.89464L5.838 1.89464C6.88169 0.558226 8.30677 0.0536044 9.7672 0.0536044C10.9541 0.0536044 12.1318 0.674677 12.2192 1.85582C13.1978 0.693161 14.7234 0 16.1912 0C18.5595 0 19.473 1.40665 18.7679 4.0037L17.1438 10L13.4397 10L14.9875 4.29205C15.2424 3.26987 15.2499 2.34196 14.102 2.31793C12.569 2.28835 12.1355 3.65619 11.9327 4.42884L10.4202 10L6.72169 10L8.26584 4.29205C8.5356 3.25139 8.52816 2.31423 7.38028 2.31793C5.78404 2.32348 5.46405 3.47874 5.21103 4.42884L3.69851 10L0 10L1.9553 2.78189C2.19157 1.91312 2.32924 1.33087 2.51343 0.288355L6.17659 0.288355L5.79893 1.89464Z" transform="translate(139 91)" id="Fill-41" fill="#FEFEFE" fill-rule="evenodd" stroke="none" />
    <path d="M4.7194 9.10817C4.55727 9.71975 4.40219 10.466 4.58547 11.0667C4.74055 11.5745 5.01899 11.8767 5.5653 11.9458C6.61915 12.0805 7.62717 10.8537 8.14 8.93343C8.45721 7.7576 8.73918 6.00113 7.24652 6.00113C5.6587 6.00113 5.05247 7.82859 4.7194 9.10817L4.7194 9.10817ZM3.58625 0L7.09496 0L5.738 5.20207L5.77325 5.20207C6.64382 4.34477 7.8827 3.90792 8.93655 3.90792C11.7791 3.90792 12.4153 6.10488 11.7685 8.82058C11.0531 11.8384 8.95241 14.2283 6.09222 13.9826C5.03309 13.8898 4.1819 13.5312 3.8735 12.3463L3.80125 12.3463L3.41531 13.7551L0 13.7551L3.58625 0Z" transform="translate(158 87)" id="Fill-43" fill="#FEFEFE" fill-rule="evenodd" stroke="none" />
    <path d="M5.94527 2.11019L5.98354 2.11019C6.87141 0.504511 8.32951 -0.0368738 10 0.00192856L9.13318 3.11351C8.85572 3.09503 8.59548 3.09503 8.33716 3.09503C6.5576 3.11351 5.49751 3.93944 4.89093 6.11237L3.80406 10L0 10L2.00918 2.78461C2.2522 1.91618 2.39571 1.33414 2.58515 0.292022L6.45427 0.292022L5.94527 2.11019Z" transform="translate(181 91)" id="Fill-45" fill="#FEFEFE" fill-rule="evenodd" stroke="none" />
    <path d="M6.56358 3.19845C6.64683 2.87529 6.66808 2.59521 6.54941 2.4067C6.41834 2.20203 6.15619 2.06918 5.67441 2.06918C5.19085 2.06918 4.76043 2.27205 4.64353 2.69037C4.45755 3.34926 5.11114 3.49648 6.49096 3.85735C8.66961 4.43186 9.50388 5.28465 9.05398 6.96869C8.38975 9.46781 6.1615 10.0441 3.78978 9.99744C1.20551 9.95615 -0.500217 8.90407 0.132124 6.6563L3.52941 6.6563C3.43907 6.98844 3.38062 7.28287 3.51878 7.54679C3.71007 7.90047 4.04484 7.93279 4.37784 7.94715C4.98184 7.97408 5.5575 7.70837 5.6992 7.1572C5.80194 6.75684 5.66024 6.4247 5.11114 6.24516C4.23614 5.96509 3.49929 5.76939 2.62252 5.43905C1.57216 5.04228 0.883139 4.36184 1.35784 2.60599C1.90339 0.5934 4.43629 -0.0619026 6.3528 0.00452538C8.60408 0.0817254 10.4515 0.704712 9.90241 3.19845L6.56358 3.19845Z" transform="translate(190 91)" id="Fill-47" fill="#FEFEFE" fill-rule="evenodd" stroke="none" />
    <path d="M0 14L3.68334 0L7.28523 0L5.88249 5.3336C6.954 4.3647 8.0038 3.9775 9.2165 3.9775C11.2636 3.9775 12.422 5.3336 11.8573 7.4863L10.1432 14L6.53952 14L8.00742 8.42371C8.30426 7.28437 8.30064 6.30065 7.18387 6.30065C5.9386 6.30065 5.40827 7.14728 5.0698 8.4163L3.60189 14L0 14Z" transform="translate(200 87)" id="Fill-49" fill="#FEFEFE" fill-rule="evenodd" stroke="none" />
    <path d="M0 14L3.68397 0L7.28648 0L5.8835 5.3336C6.95158 4.3647 8.00518 3.9775 9.21808 3.9775C11.2655 3.9775 12.4241 5.3336 11.8557 7.4863L10.1413 14L6.54064 14L8.0088 8.42371C8.30569 7.28437 8.30207 6.30065 7.18149 6.30065C5.936 6.30065 5.4092 7.14728 5.07067 8.4163L3.59889 14L0 14Z" transform="translate(248 87)" id="Fill-51" fill="#FEFEFE" fill-rule="evenodd" stroke="none" />
    <path d="M2.92662 2.59767L3.56997 0L7 0L6.35666 2.59767L2.92662 2.59767ZM0 14L2.41638 4.26522L5.81229 4.26522L3.3959 14L0 14Z" transform="translate(212 87)" id="Fill-53" fill="#FEFEFE" fill-rule="evenodd" stroke="none" />
    <path d="M5.71671 5.25094C5.51027 6.06604 5.37264 7.01698 5.66554 7.6566C5.83316 8.01132 6.12605 8.31321 6.63597 8.33208C7.77048 8.3717 8.58388 7.11887 9.11497 5.25094C9.47315 3.99811 9.669 2.16981 8.19042 2.16981C6.71184 2.16981 6.0343 3.98679 5.71671 5.25094L5.71671 5.25094ZM6.6095 1.69434L6.64655 1.69434C7.64345 0.530189 8.71798 0 10.0872 0C12.8397 0 13.4078 2.50566 12.7532 5.11509C12.058 7.87547 10.2248 10.7226 7.12647 10.5019C5.86845 10.4132 5.17503 9.85094 4.80274 9.02453L4.76569 9.02453L3.51119 14L0 14L3.45296 0.29434L6.96415 0.29434L6.6095 1.69434Z" transform="translate(216 90)" id="Fill-55" fill="#FEFEFE" fill-rule="evenodd" stroke="none" />
    <path d="M5.71452 5.25094C5.50803 6.06604 5.37038 7.01698 5.66687 7.6566C5.831 8.01132 6.12749 8.31321 6.63752 8.33208C7.76878 8.3717 8.5859 7.11887 9.11358 5.25094C9.47184 3.99811 9.66774 2.16981 8.19234 2.16981C6.71341 2.16981 6.03219 3.98679 5.71452 5.25094L5.71452 5.25094ZM6.61105 1.69434L6.64811 1.69434C7.64171 0.530189 8.72002 0 10.086 0C12.8427 0 13.4074 2.50566 12.7527 5.11509C12.0573 7.87547 10.2237 10.7226 7.12815 10.5019C5.86629 10.4132 5.17272 9.85094 4.80034 9.02453L4.76327 9.02453L3.50848 14L0 14L3.45024 0.29434L6.96225 0.29434L6.61105 1.69434Z" transform="translate(271 90)" id="Fill-57" fill="#FEFEFE" fill-rule="evenodd" stroke="none" />
    <path d="M5.71671 5.25094C5.51027 6.06604 5.36912 7.01698 5.66907 7.6566C5.83316 8.01132 6.12958 8.31321 6.63949 8.33208C7.77048 8.3717 8.58741 7.11887 9.11497 5.25094C9.46962 3.99811 9.669 2.16981 8.19042 2.16981C6.71184 2.16981 6.0343 3.98679 5.71671 5.25094L5.71671 5.25094ZM6.6095 1.69434L6.64655 1.69434C7.64345 0.530189 8.71798 0 10.0872 0C12.8397 0 13.4078 2.50566 12.7532 5.11509C12.058 7.87547 10.2248 10.7226 7.12647 10.5019C5.86845 10.4132 5.17503 9.85094 4.80274 9.02453L4.76569 9.02453L3.51119 14L0 14L3.45296 0.29434L6.96415 0.29434L6.6095 1.69434Z" transform="translate(283 90)" id="Fill-59" fill="#FEFEFE" fill-rule="evenodd" stroke="none" />
    <path d="M9.87251 4.22793C9.96498 3.71389 9.9763 3.31368 9.69889 3.03621C9.44412 2.75873 8.97232 2.60933 8.29859 2.60933C7.64185 2.60933 6.98322 2.77652 6.52275 3.26922C6.24533 3.56448 5.97735 4.31864 6.46236 4.68327C7.30405 5.31114 9.33088 5.51035 10.9331 6.2076C12.5448 6.91018 13.2298 7.89734 12.7184 9.83077C11.9182 12.8403 9.30069 14 5.26211 14C1.94066 14 -0.765565 12.8919 0.196901 9.44302L4.21472 9.44302C3.82407 10.9158 4.70162 11.3942 6.04718 11.3942C7.34368 11.3942 8.24009 10.898 8.44957 10.2061C8.76662 9.16021 8.1363 8.744 7.08513 8.43451C6.0585 8.13569 4.0411 7.63588 2.9654 6.99022C1.71609 6.2325 1.63871 4.74196 2.14636 3.39017C3.0692 0.928472 5.81128 0 9.30069 0C12.2466 0 14.6867 1.18816 13.8243 4.22793L9.87251 4.22793Z" transform="translate(235 87)" id="Fill-61" fill="#FEFEFE" fill-rule="evenodd" stroke="none" />
    <path d="M5.15647 7.93388C6.7401 7.93388 7.52624 6.33669 7.90609 5C8.28215 3.66691 8.40121 2.06612 6.81758 2.06612C5.23395 2.06612 4.44403 3.66691 4.06796 5C3.6919 6.33669 3.57284 7.93388 5.15647 7.93388M11.7631 5C10.7785 8.48185 8.01758 10 4.56875 10C1.46197 10 -0.70938 8.09199 0.214718 4.88142C1.21819 1.40676 4.29662 0 7.40341 0C10.5121 0 12.7533 1.51994 11.7631 5" transform="translate(260 91)" id="Fill-63" fill="#FEFEFE" fill-rule="evenodd" stroke="none" />
    <path d="M2.85551 2.59767L3.50954 0L7 0L6.3425 2.59767L2.85551 2.59767ZM0 14L2.45304 4.26522L5.90533 4.26522L3.44882 14L0 14Z" transform="translate(297 87)" id="Fill-65" fill="#FEFEFE" fill-rule="evenodd" stroke="none" />
    <path d="M5.88412 1.35305C6.95232 0.386322 8.00603 0 9.21906 0C11.2667 0 12.4218 1.35305 11.857 3.50092L10.146 10L6.54134 10L8.04767 4.29205C8.28485 3.24399 8.30295 2.31608 7.18225 2.31608C5.95473 2.31608 5.4315 3.07579 5.07121 4.42884L3.60289 10L0 10L1.90646 2.78189C2.13277 1.91312 2.26675 1.33087 2.4478 0.288355L6.10682 0.288355L5.88412 1.35305Z" transform="translate(302 91)" id="Fill-67" fill="#FEFEFE" fill-rule="evenodd" stroke="none" />
    <g id="Group-71" transform="translate(314 90)">
      <path d="M0 0L12.9179 0L12.9179 14.0288L0 14.0288L0 0Z" transform="translate(0.37543204 0.97125)" id="Clip-70" fill="none" fill-rule="evenodd" stroke="none" />
      <g clip-path="url(#mask_1)">
        <path d="M7.13675 2.15625C5.68252 2.15625 4.97675 3.68625 4.66386 4.90312C4.3563 6.12187 4.27986 7.65375 5.73052 7.65375C7.18475 7.65375 7.89408 6.12187 8.20341 4.90312C8.51097 3.68625 8.58741 2.15625 7.13675 2.15625L7.13675 2.15625ZM10.751 8.76938C10.2656 10.4587 10.0114 11.6231 8.52164 12.7463C7.23452 13.7213 5.68608 14.0288 4.04697 14.0288C1.98119 14.0288 -0.550365 13.5019 0.105635 10.6556L3.39986 10.6556C3.31097 11.0925 3.41052 11.4206 3.61852 11.6156C3.85497 11.7956 4.20697 11.8856 4.58208 11.8725C6.14297 11.8162 6.69586 10.8094 7.06386 9.36L7.3483 8.23875L7.31452 8.23875C6.45586 9.3375 5.36252 9.81 3.99008 9.81C1.31097 9.81 0.272746 7.70438 1.04252 4.7775C1.85497 1.695 3.75186 0 6.4523 0C7.75541 0 8.73319 0.56625 8.97675 1.725L9.01586 1.725L9.47275 0.2925L12.9181 0.2925L10.751 8.76938Z" transform="translate(0.37543204 0.97125)" id="Fill-69" fill="#FEFEFE" fill-rule="evenodd" stroke="none" />
      </g>
    </g>
    <path d="M3.93634 3.52208C4.63035 3.49877 4.79175 3.21004 4.79175 2.84779C4.79175 2.49989 4.63035 2.31518 4.04573 2.31518L3.15445 2.31518L3.15445 3.52208L3.93634 3.52208ZM3.15445 4.25913L3.15445 6.28738L2.42278 6.28738L2.42278 1.58529L3.9471 1.58529C4.80789 1.58529 5.70096 1.82022 5.70096 2.88366C5.70096 3.42165 5.37637 3.84846 4.74512 3.98117L4.74512 3.9991C5.39251 4.12464 5.46963 4.41695 5.54136 4.92446C5.60771 5.37637 5.65972 5.85878 5.81753 6.28738L4.885 6.28738C4.833 6.02017 4.75588 5.72248 4.72361 5.44631C4.6716 5.04282 4.6716 4.6716 4.45819 4.44743C4.27169 4.25913 4.03497 4.27169 3.77494 4.25913L3.15445 4.25913ZM7.29523 3.99193C7.29523 2.18068 5.82829 0.704775 4.00628 0.704775C2.18068 0.704775 0.702981 2.18068 0.702981 3.99193C0.702981 5.81753 2.18068 7.29523 4.00628 7.29523C5.82829 7.29523 7.29523 5.81753 7.29523 3.99193L7.29523 3.99193ZM0 3.99193C0 1.78435 1.78615 0 4.00628 0C6.22282 0 8 1.78435 8 3.99193C8 6.21206 6.22282 8 4.00628 8C1.78615 8 0 6.21206 0 3.99193L0 3.99193Z" transform="translate(283 48)" id="Fill-72" fill="#FEFEFE" fill-rule="evenodd" stroke="none" />
  </g>
</svg>